<?xml version="1.0" encoding="UTF-8" standalone="no"?>
<svg
   width="16"
   height="16"
   fill="none"
   viewBox="0 0 16 16"
   version="1.1"
   id="svg1"
   sodipodi:docname="ResourceComponentNode.svg"
   inkscape:version="1.4.4 (dcaf3e7d9e, 2026-05-05)"
   xmlns:inkscape="http://www.inkscape.org/namespaces/inkscape"
   xmlns:sodipodi="http://sodipodi.sourceforge.net/DTD/sodipodi-0.dtd"
   xmlns="http://www.w3.org/2000/svg"
   xmlns:svg="http://www.w3.org/2000/svg">
  <defs
     id="defs1" />
  <sodipodi:namedview
     id="namedview1"
     pagecolor="#ffffff"
     bordercolor="#000000"
     borderopacity="0.25"
     inkscape:showpageshadow="2"
     inkscape:pageopacity="0.0"
     inkscape:pagecheckerboard="0"
     inkscape:deskcolor="#d1d1d1"
     inkscape:zoom="50.5"
     inkscape:cx="7.990099"
     inkscape:cy="8"
     inkscape:window-width="1920"
     inkscape:window-height="1014"
     inkscape:window-x="0"
     inkscape:window-y="0"
     inkscape:window-maximized="1"
     inkscape:current-layer="svg1" />
  <path
     fill="#ffffff"
     d="M10.707 1c.188 0 .367.074.5.207l3.586 3.586a.708.708 0 0 1-1 1L13.5 5.5l-1.646 1.646-1.5-1.5a.5.5 0 1 0-.708.708l1.5 1.5-1.292 1.292-1.5-1.5a.5.5 0 1 0-.708.708l1.5 1.5-1.292 1.293-1.5-1.5a.5.5 0 1 0-.708.707l1.5 1.5-1.292 1.293-1.5-1.5a.5.5 0 1 0-.708.707l1.5 1.5-.525.525a2.122 2.122 0 0 1-3-3L10.5 2.5l-.293-.293a.708.708 0 0 1 .5-1.207"
     id="path1"
     style="fill:#ff9923;fill-opacity:1" />
</svg>
